<svg width="251" height="184" viewBox="0 0 251 184" fill="none" xmlns="http://www.w3.org/2000/svg">
<path d="M177.091 166.858C177.605 166.129 178.239 165.456 178.619 164.662C180.409 160.909 182.124 157.127 183.874 153.358C184.159 152.743 184.432 152.109 184.801 151.538C186.29 149.247 186.836 146.728 186.842 144.026C186.841 143.499 187.138 142.835 187.518 142.471C188.599 141.435 189.618 140.238 191.351 140.278C192.882 140.315 193.689 141.053 193.642 142.564C193.444 148.674 193.793 154.749 194.781 160.774C194.968 161.905 195.325 163.035 195.788 164.083C196.256 165.14 196.904 165.186 197.752 164.38C199.26 162.954 200.11 161.138 200.526 159.153C201.499 154.498 202.375 149.825 203.304 145.158C203.493 144.22 203.592 143.204 204.044 142.396C204.404 141.753 205.16 141.127 205.867 140.918C207.381 140.477 208.162 141.169 208.123 142.737C208.082 144.368 207.999 146.001 207.828 147.625C207.353 152.131 207.792 156.592 208.389 161.044C208.487 161.778 209.009 162.924 209.511 163.022C210.179 163.154 211.362 162.664 211.715 162.079C213.394 159.285 214.888 156.38 216.392 153.484C216.575 153.136 216.474 152.614 216.45 152.181C216.104 145.289 215.927 138.402 216.444 131.51C216.636 128.958 216.848 126.414 218.015 124.049C218.817 122.419 221.251 120.826 223.079 120.913C224.776 120.994 226.27 121.516 227.448 122.847C229.459 125.134 231.426 127.485 231.12 130.764C230.692 135.423 230.08 140.072 227.85 144.308C227.758 144.482 227.706 144.673 227.583 144.99C228.024 145.197 228.424 145.451 228.86 145.586C231.023 146.24 232.52 147.506 232.914 149.838C232.949 150.034 233.036 150.218 233.099 150.408C233.81 152.621 234.166 152.708 235.778 150.893C238.062 148.317 240.3 145.7 242.558 143.106C242.635 143.015 242.711 142.909 242.809 142.846C243.402 142.489 243.693 141.386 244.633 141.904C245.727 142.511 246.096 143.945 245.707 145.03C245.372 145.957 245.239 146.955 244.909 147.882C244.676 148.547 244.346 149.208 243.918 149.763C242.726 151.317 241.591 152.951 240.185 154.29C238.842 155.562 237.257 156.631 235.638 157.537C234.768 158.02 234.539 158.506 234.54 159.39C234.542 161.884 234.365 164.354 233.208 166.641C232.086 168.848 230.435 170.307 227.881 170.607C225.548 170.881 223.335 170.616 221.272 169.415C219.284 168.254 218.082 166.561 217.681 164.287C217.626 163.981 217.532 163.682 217.396 163.129C217.041 163.511 216.802 163.727 216.608 163.979C214.887 166.263 213.056 168.462 210.335 169.583C208.096 170.509 205.851 170.894 203.992 168.671C203.827 168.477 203.117 168.459 202.891 168.645C200.833 170.329 198.601 170.501 196.113 169.806C193.86 169.177 191.486 168.805 190.278 166.484C189.528 165.037 188.989 163.476 188.393 161.948C187.961 160.846 187.595 159.716 187.196 158.597C187.079 158.579 186.962 158.557 186.841 158.539C186.078 160.263 185.354 162.009 184.541 163.707C183.387 166.119 182.173 168.501 180.963 170.888C180.768 171.276 180.474 171.625 180.173 171.946C178.661 173.562 177.011 174.764 174.601 173.906C172.23 173.065 170.435 171.719 170.438 168.974C170.441 166.142 170.622 163.304 170.716 160.472C170.819 157.354 171.019 154.23 170.943 151.112C170.913 149.867 170.262 148.637 169.825 147.182C167.343 148.865 165.509 150.426 165.467 153.42C165.395 158.668 165.134 163.911 164.965 169.16C164.909 170.854 164.277 171.556 162.565 171.636C161.892 171.668 161.205 171.634 160.531 171.555C159.229 171.394 158.6 170.569 158.115 169.378C157.022 166.683 157.135 163.845 157.113 161.077C157.061 154.27 157.182 147.458 157.429 140.654C157.537 137.715 157.958 134.758 158.521 131.861C159.133 128.705 160.782 125.985 162.886 123.564C163.847 122.457 164.993 122.07 166.406 122.766C167.724 123.418 169.175 123.845 170.395 124.638C172.516 126.02 173.053 128.242 172.195 130.605C170.934 134.067 169.57 137.477 167.482 140.54C166.875 141.424 166.127 142.214 165.53 143.103C165.294 143.454 165.278 143.953 165.162 144.389C165.554 144.406 165.991 144.551 166.326 144.427C169.945 143.067 173.646 144.429 175.142 148.03C175.938 149.953 176.321 152.092 176.599 154.174C176.911 156.511 176.99 158.894 176.999 161.257C177.003 162.639 176.655 164.021 176.505 165.406C176.456 165.834 176.543 166.279 176.567 166.718C176.743 166.761 176.915 166.81 177.091 166.858ZM223.069 144.368C223.151 144.369 223.233 144.364 223.315 144.365C223.447 144.048 223.637 143.738 223.697 143.411C224.532 138.701 225.381 133.995 226.143 129.275C226.28 128.431 226.128 127.507 225.936 126.657C225.669 125.478 224.821 125.22 223.895 126.006C223.521 126.321 223.185 126.784 223.037 127.242C222.207 129.859 221.951 132.555 222.14 135.285C222.323 137.996 222.593 140.707 222.843 143.414C222.87 143.732 222.989 144.049 223.069 144.368ZM164.36 137.88C164.636 137.642 164.898 137.502 165.031 137.282C166.323 135.176 167.675 133.106 168.837 130.93C169.537 129.62 169.076 128.52 167.821 127.622C166.907 126.967 166.182 127.026 165.795 128.048C164.995 130.161 164.246 132.314 163.735 134.512C163.49 135.565 163.501 136.816 164.36 137.88ZM224.586 155.169C224.552 157.892 224.502 160.48 224.5 163.071C224.5 163.945 224.863 164.66 225.861 164.75C226.83 164.837 227.39 164.231 227.575 163.389C227.869 162.073 228.181 160.727 228.208 159.386C228.277 156.444 227.843 155.999 224.586 155.169ZM226.797 151.983C226.948 151.916 227.094 151.855 227.244 151.789C227.487 151.2 227.436 150.633 226.784 150.268C226.62 150.175 226.268 150.432 226.003 150.523C226.266 151.012 226.534 151.495 226.797 151.983Z" fill="#253746"/>
<path d="M35.5496 81.1928L56.3287 78.5965L57.7566 90.0208L50.3315 90.9482C51.1819 92.6067 51.9177 94.6477 52.2315 97.1226C53.7499 109.218 44.377 117.18 31.6383 118.775C29.4851 119.051 27.6608 119.064 26.0969 118.873C25.4286 119.974 25.1359 120.965 25.2664 122.028C25.431 123.286 26.708 124.202 28.1902 124.017L42.0338 122.291C53.2902 120.882 62.2816 123.921 63.7078 135.29C65.1918 147.175 53.9353 153.665 38.3023 155.628C23.7321 157.46 11.8244 154.987 10.5819 145.045C10.0091 140.514 12.4179 136.637 16.4453 133.834C14.7178 132.876 13.0485 131.06 12.5837 127.312C12.0849 123.369 14.1865 120.007 17.1133 117.012C11.6202 114.54 7.23729 109.803 6.36688 102.867C4.848 90.7579 14.2214 82.8093 26.9601 81.2152C29.896 80.8312 32.7738 80.842 35.5496 81.1928ZM20.9787 101.02C21.5515 105.55 25.1421 107.771 30.19 107.14C35.238 106.51 38.1775 103.473 37.6048 98.9425C37.032 94.4121 33.4414 92.1912 28.3935 92.8218C23.3455 93.4524 20.42 96.4889 20.9787 101.02ZM25.7511 136.597C25.1197 137.529 24.717 138.594 24.8815 139.852C25.2689 142.9 28.7336 143.749 36.5781 142.767C45.8348 141.602 48.8305 139.952 48.4963 137.268C48.2204 135.114 46.1665 134.04 43.1179 134.413L25.7511 136.597Z" fill="#253746"/>
<path d="M224.84 108.792L223.825 104.963C221.207 108.398 215.867 110.988 209.603 111.768C195.34 113.549 184.636 103.571 182.747 88.5115C180.854 73.3536 188.758 60.9299 203.007 59.1496C210.642 58.2017 215.702 60.2798 219.116 63.6009L215.484 34.614L231.579 32.595L240.864 106.776L224.84 108.792ZM199.425 86.3204C200.276 93.0601 205.707 97.1902 212.013 96.395C218.222 95.6169 222.201 90.3026 221.365 83.5765C220.513 76.7947 215.349 72.6846 209.141 73.4627C202.764 74.246 198.539 79.3152 199.425 86.3204Z" fill="#253746"/>
<path d="M94.3743 53.3275C92.2884 55.8825 90.3789 58.7344 87.9586 61.0278C84.8542 63.9723 81.0115 66.3441 76.5634 65.2292C70.8178 63.7992 65.3829 61.472 63.5019 54.9223C63.4362 54.6992 63.3049 54.4931 63.1839 54.2331C63.0295 54.335 62.8722 54.3836 62.8374 54.4789C61.542 58.0703 58.9465 60.8134 56.2256 63.2167C53.3776 65.7337 49.9221 67.6308 45.7602 67.1135C45.2367 67.0491 44.7116 66.958 44.2346 66.7709C42.3961 66.0723 40.5583 65.3869 38.7671 64.5789C34.8849 62.8462 33.0579 59.4535 31.9024 55.6638C29.7506 48.5556 31.8101 42.1354 35.7105 36.2137C37.1862 33.959 39.2283 32.0598 41.079 30.0778C41.4064 29.7264 42.0917 29.5819 42.6235 29.5526C46.8374 29.3204 50.5174 30.7709 53.8158 33.2825C55.2074 34.3392 55.6513 35.8614 55.0539 37.361C53.2271 41.9551 50.3505 45.647 45.8787 47.9734C45.2435 48.3018 44.5942 48.6176 43.9132 48.8418C42.4065 49.3248 41.9053 50.3925 41.8278 51.8901C41.6701 54.5921 42.3956 57.1122 43.2785 59.5835C44.0839 61.8592 45.5791 62.6168 47.9167 61.968C49.0327 61.6531 50.1746 61.0835 51.039 60.3159C55.4118 56.4348 58.2978 51.4624 60.8936 46.3059C62.72 42.6719 64.2984 38.8915 66.429 35.4541C68.0452 32.845 70.3377 30.6519 72.3829 28.3259C72.6592 28.0173 73.2094 27.8403 73.6481 27.8161C78.0193 27.5352 81.8456 28.9777 85.2451 31.6304C86.5828 32.6767 86.9706 34.1486 86.3843 35.6076C84.5575 40.2017 81.6676 43.8943 77.2091 46.2201C76.5739 46.5484 75.9106 46.8517 75.2436 47.0884C73.8299 47.5663 73.2431 48.532 73.1509 50.0038C72.9821 52.7465 73.6847 55.3344 74.5964 57.8442C75.5693 60.4973 77.9579 61.259 80.7117 59.6939C82.1721 58.8534 83.4915 57.634 84.608 56.3591C88.2823 52.1432 91.0715 47.3494 93.2818 42.2142C93.5539 41.5859 93.5653 40.8253 93.5796 40.1178C93.6881 33.6184 93.6755 27.099 95.0962 20.7007C95.737 17.812 96.3084 14.8738 98.3536 12.5477C98.7171 12.1277 99.139 11.5577 99.6139 11.4649C103.74 10.5975 107.813 10.4797 111.547 12.9139C113.538 14.2042 114.338 15.8935 114.062 18.3887C113.56 22.8165 112.034 26.8206 109.858 30.6472C108.01 33.8825 106.148 37.1184 104.341 40.3781C104.025 40.9421 103.784 41.6488 103.819 42.2735C104.134 48.2429 104.516 54.2086 104.884 60.1617C104.901 60.4541 104.916 60.7333 104.972 61.0235C105.36 63.2288 106.911 64.0234 108.494 62.5094C110.862 60.2455 113.154 57.7992 114.952 55.0868C118.51 49.7439 121.368 44.013 123.308 37.8394C123.672 36.6993 124.508 35.6666 125.268 34.7046C125.891 33.9103 126.556 34.1137 126.744 35.1033C126.876 35.8028 126.997 36.5561 126.875 37.2428C126.347 40.0053 126.107 42.8985 125.047 45.4503C122.109 52.6123 118.787 59.6088 113.996 65.8196C111.968 68.4514 109.459 69.1363 106.443 68.8492C105.358 68.749 104.288 68.4613 103.199 68.2813C100.01 67.7637 97.6025 66.1764 96.6675 63.0012C95.8313 60.1673 95.2846 57.264 94.6058 54.3814C94.4605 53.9228 94.4097 53.4855 94.3743 53.3275ZM102.189 31.5766C102.311 31.6098 102.446 31.6424 102.567 31.6624C104.587 28.391 106.454 25.0214 107.449 21.2866C107.681 20.4204 107.367 19.3177 107.038 18.4292C106.85 17.9328 106.106 17.4938 105.553 17.3777C105.297 17.3251 104.658 18.067 104.537 18.527C103.655 21.8823 102.787 25.2502 102.067 28.6366C101.866 29.581 102.136 30.6062 102.189 31.5766ZM41.6156 45.8617C43.7539 44.9838 45.3024 43.5652 46.5512 41.7896C48.2575 39.3622 48.021 37.9753 45.545 36.1117C42.4408 38.5761 41.082 41.7444 41.6156 45.8617ZM76.834 34.3339C73.7844 36.822 72.3445 39.9681 72.8973 43.951C74.5938 43.5242 76.4067 42.0643 77.8543 40.0245C79.5354 37.6251 79.2835 36.199 76.834 34.3339Z" fill="#253746"/>
<path d="M8.09202 55.0027C7.39408 55.1612 6.80102 55.2872 6.21015 55.4531C5.13257 55.7392 4.06305 56.1715 3.28526 54.881C2.40415 53.4095 2.37318 51.6379 3.45034 50.6185C4.2741 49.8398 5.26617 49.2117 6.26337 48.6768C7.053 48.2466 7.29249 47.7534 7.27072 46.8746C7.16043 40.7606 6.95636 34.6384 7.08608 28.5245C7.16754 24.68 8.13586 20.9599 10.163 17.5815C13.7902 11.5415 21.9399 10.3857 26.9794 15.2147C29.8236 17.9513 30.4006 24.0662 28.1325 27.9113C27.6935 28.6555 27.2582 29.4662 26.5919 29.9562C25.9905 30.416 25.0481 30.7346 24.3229 30.6413C23.3031 30.5241 23.181 29.5175 23.1836 28.5974C23.1852 26.6906 23.2407 24.7942 23.1093 22.8947C23.0455 21.9782 22.7505 20.9812 22.2672 20.1945C20.9337 18.0146 18.759 17.7478 17.4236 19.8881C16.0261 22.1118 14.7917 24.6332 14.332 27.1785C13.8412 29.8856 14.2542 32.7829 14.4619 35.5848C14.6571 38.4007 15.1175 41.1887 15.3924 44.0003C15.5093 45.1538 16.0881 45.4953 17.1184 45.3185C19.9448 44.8294 22.7579 44.341 25.5836 43.8386C25.9137 43.7804 26.2276 43.6698 26.5578 43.6116C27.5334 43.4112 28.5127 43.2772 29.0543 44.394C29.5656 45.4458 29.4942 46.5698 28.5737 47.2872C27.4619 48.1618 26.2098 48.9108 24.9209 49.4752C22.6807 50.4387 20.3629 51.2064 18.0895 52.0517C16.9786 52.4596 16.7929 53.2032 17.0553 54.3354C18.4602 60.4714 19.3341 66.65 18.2553 72.9628C17.8414 75.3723 16.4751 77.1943 14.6482 78.6417C12.9107 80.0175 10.0311 78.8161 9.85706 76.6257C9.58305 73.3474 9.62734 70.0383 9.36663 66.7593C9.04856 62.9234 8.54365 59.0846 8.09202 55.0027Z" fill="#253746"/>
<path d="M117.372 96.5893C119.261 111.635 109.148 124.336 93.5146 126.299C77.8816 128.262 64.9504 118.436 63.0756 103.39C61.1868 88.3446 71.3001 75.6432 86.933 73.6804C102.566 71.7317 115.497 81.5432 117.372 96.5893ZM79.4917 101.333C80.3452 108.171 85.3727 112.412 91.6789 111.617C97.9992 110.821 101.809 105.484 100.956 98.6461C100.102 91.8083 95.0749 87.5677 88.7687 88.3628C82.4625 89.158 78.6383 94.4957 79.4917 101.333Z" fill="url(#paint0_linear)"/>
<path d="M177.15 89.1026C179.039 104.148 168.926 116.85 153.293 118.812C137.66 120.775 124.729 110.95 122.854 95.9035C120.965 80.8578 131.078 68.1565 146.711 66.1937C162.345 64.2449 175.275 74.0564 177.15 89.1026ZM139.27 93.8467C140.123 100.685 145.151 104.925 151.457 104.13C157.777 103.334 161.587 97.9972 160.734 91.1593C159.881 84.3215 154.853 80.0809 148.547 80.876C142.241 81.6712 138.417 87.0089 139.27 93.8467Z" fill="url(#paint1_linear)"/>
<path d="M137.706 126.114C135.583 126.378 133.874 127.988 133.485 130.091C133.26 131.03 131.509 136.944 122.645 138.053C113.781 139.161 110.623 133.849 110.171 133.01C109.172 130.803 106.7 129.653 104.362 130.31C102.025 130.98 100.522 133.25 100.848 135.651C100.918 136.182 101.066 136.684 101.307 137.169C101.55 137.694 107.407 149.864 123.847 147.806C140.301 145.748 142.988 132.506 143.065 131.945C143.169 131.422 143.192 130.888 143.123 130.358C142.816 127.717 140.387 125.806 137.706 126.114Z" fill="url(#paint2_linear)"/>
<path fill-rule="evenodd" clip-rule="evenodd" d="M168.329 43.9952L168.461 35.7076C168.49 33.9289 167.1 32.4669 165.354 32.4391C163.609 32.4113 162.173 33.8281 162.145 35.6069L162.013 43.8945C161.985 45.6701 163.374 47.1352 165.12 47.163C166.865 47.1909 168.301 45.7708 168.329 43.9952ZM190.069 37.5015C189.3 37.1403 188.421 37.1074 187.63 37.4123C186.839 37.7172 186.202 38.3357 185.86 39.1225L182.252 47.3546C181.529 48.9872 182.242 50.9098 183.843 51.6458C185.445 52.3818 187.329 51.6542 188.055 50.0217L191.66 41.7895C192.015 41.0062 192.045 40.1107 191.746 39.3044C191.447 38.498 190.844 37.8502 190.069 37.5016L190.069 37.5015ZM146.22 51.086C144.596 51.7485 142.755 50.9428 142.103 49.2883L138.683 40.8659C138.034 39.2114 138.826 37.3317 140.45 36.6691C142.074 36.0066 143.918 36.8093 144.567 38.4637L147.987 46.8892C148.636 48.5437 147.847 50.4204 146.22 51.086Z" fill="#253746"/>
<path d="M141.901 162.94C116.545 163.162 55.9792 165.175 16.5624 171.445" stroke="#253746" stroke-width="11" stroke-linecap="round" stroke-dasharray="2 15"/>
<defs>
<linearGradient id="paint0_linear" x1="66.4272" y1="165.502" x2="185.11" y2="136.633" gradientUnits="userSpaceOnUse">
<stop stop-color="#E0004D"/>
<stop offset="0.0001" stop-color="#E0004D"/>
<stop offset="1" stop-color="#E07E3C"/>
</linearGradient>
<linearGradient id="paint1_linear" x1="66.4272" y1="165.502" x2="185.11" y2="136.633" gradientUnits="userSpaceOnUse">
<stop stop-color="#E0004D"/>
<stop offset="0.0001" stop-color="#E0004D"/>
<stop offset="1" stop-color="#E07E3C"/>
</linearGradient>
<linearGradient id="paint2_linear" x1="66.4272" y1="165.502" x2="185.11" y2="136.633" gradientUnits="userSpaceOnUse">
<stop stop-color="#E0004D"/>
<stop offset="0.0001" stop-color="#E0004D"/>
<stop offset="1" stop-color="#E07E3C"/>
</linearGradient>
</defs>
</svg>
