<svg width="251" height="183" viewBox="0 0 251 183" fill="none" xmlns="http://www.w3.org/2000/svg">
<path d="M176.53 166.519C177.043 165.792 177.675 165.121 178.054 164.329C179.839 160.586 181.55 156.814 183.295 153.055C183.579 152.442 183.852 151.81 184.219 151.24C185.704 148.955 186.249 146.443 186.254 143.748C186.254 143.223 186.55 142.561 186.929 142.198C188.007 141.165 189.023 139.971 190.752 140.011C192.278 140.047 193.083 140.784 193.036 142.29C192.839 148.384 193.187 154.443 194.172 160.452C194.359 161.579 194.715 162.707 195.176 163.751C195.643 164.805 196.29 164.851 197.135 164.048C198.639 162.625 199.487 160.814 199.902 158.835C200.872 154.193 201.746 149.532 202.672 144.878C202.861 143.942 202.959 142.929 203.41 142.123C203.769 141.482 204.523 140.857 205.228 140.649C206.738 140.21 207.517 140.899 207.478 142.463C207.438 144.09 207.354 145.719 207.184 147.338C206.71 151.832 207.148 156.281 207.744 160.721C207.842 161.453 208.362 162.596 208.862 162.693C209.528 162.825 210.709 162.336 211.061 161.753C212.735 158.966 214.225 156.069 215.725 153.181C215.908 152.834 215.807 152.314 215.783 151.881C215.438 145.008 215.261 138.14 215.777 131.267C215.969 128.721 216.18 126.184 217.343 123.825C218.144 122.2 220.571 120.611 222.394 120.698C224.086 120.778 225.577 121.299 226.751 122.627C228.757 124.907 230.719 127.252 230.413 130.523C229.986 135.169 229.376 139.805 227.152 144.03C227.06 144.203 227.008 144.394 226.886 144.71C227.326 144.917 227.724 145.169 228.16 145.305C230.317 145.957 231.81 147.219 232.202 149.545C232.237 149.741 232.324 149.924 232.387 150.113C233.096 152.32 233.452 152.407 235.059 150.597C237.336 148.028 239.568 145.418 241.821 142.831C241.897 142.74 241.973 142.635 242.071 142.571C242.662 142.216 242.952 141.115 243.89 141.632C244.981 142.237 245.349 143.668 244.961 144.75C244.627 145.674 244.494 146.67 244.165 147.594C243.933 148.257 243.604 148.917 243.177 149.47C241.988 151.02 240.857 152.649 239.454 153.985C238.115 155.254 236.533 156.319 234.919 157.223C234.051 157.705 233.823 158.189 233.824 159.071C233.826 161.558 233.649 164.022 232.496 166.302C231.376 168.504 229.73 169.959 227.183 170.258C224.856 170.531 222.649 170.267 220.592 169.07C218.609 167.911 217.41 166.223 217.011 163.955C216.956 163.65 216.862 163.351 216.726 162.8C216.372 163.181 216.134 163.396 215.941 163.648C214.225 165.926 212.398 168.119 209.685 169.237C207.451 170.16 205.212 170.544 203.359 168.328C203.194 168.134 202.486 168.115 202.261 168.301C200.208 169.981 197.982 170.152 195.5 169.459C193.254 168.831 190.886 168.461 189.682 166.146C188.934 164.703 188.396 163.146 187.802 161.622C187.371 160.523 187.006 159.396 186.608 158.28C186.492 158.263 186.375 158.24 186.254 158.223C185.492 159.942 184.771 161.683 183.96 163.376C182.809 165.782 181.598 168.158 180.392 170.538C180.197 170.925 179.904 171.273 179.604 171.594C178.096 173.205 176.45 174.404 174.047 173.548C171.682 172.71 169.892 171.367 169.894 168.629C169.898 165.805 170.078 162.975 170.173 160.15C170.275 157.04 170.474 153.925 170.399 150.816C170.369 149.574 169.719 148.347 169.283 146.896C166.808 148.575 164.98 150.131 164.937 153.117C164.865 158.351 164.605 163.58 164.437 168.815C164.381 170.505 163.751 171.204 162.043 171.284C161.372 171.316 160.687 171.282 160.014 171.203C158.717 171.043 158.089 170.22 157.605 169.032C156.515 166.345 156.628 163.514 156.606 160.753C156.554 153.965 156.675 147.172 156.921 140.386C157.029 137.454 157.448 134.506 158.01 131.616C158.621 128.469 160.265 125.756 162.363 123.341C163.322 122.238 164.465 121.852 165.874 122.546C167.189 123.196 168.636 123.622 169.853 124.413C171.968 125.791 172.503 128.008 171.647 130.363C170.39 133.816 169.029 137.217 166.947 140.272C166.341 141.154 165.596 141.942 165 142.828C164.765 143.178 164.749 143.676 164.633 144.111C165.024 144.128 165.46 144.273 165.794 144.148C169.404 142.792 173.095 144.151 174.586 147.741C175.38 149.659 175.762 151.793 176.04 153.869C176.351 156.2 176.429 158.576 176.439 160.933C176.442 162.311 176.095 163.689 175.945 165.071C175.897 165.498 175.984 165.942 176.008 166.379C176.183 166.422 176.354 166.471 176.53 166.519ZM222.384 144.09C222.466 144.09 222.548 144.086 222.63 144.086C222.761 143.77 222.951 143.461 223.01 143.135C223.843 138.438 224.69 133.745 225.45 129.037C225.587 128.196 225.435 127.274 225.244 126.426C224.977 125.25 224.131 124.993 223.207 125.777C222.835 126.092 222.5 126.553 222.352 127.01C221.524 129.62 221.269 132.309 221.457 135.031C221.64 137.735 221.909 140.439 222.159 143.138C222.186 143.455 222.304 143.772 222.384 144.09ZM163.833 137.619C164.109 137.382 164.37 137.243 164.503 137.023C165.791 134.923 167.139 132.858 168.299 130.688C168.996 129.382 168.537 128.284 167.285 127.389C166.374 126.735 165.651 126.795 165.265 127.814C164.467 129.92 163.72 132.068 163.21 134.26C162.965 135.31 162.976 136.558 163.833 137.619ZM223.897 154.861C223.864 157.577 223.813 160.158 223.812 162.742C223.812 163.614 224.173 164.327 225.169 164.417C226.135 164.503 226.693 163.899 226.878 163.06C227.171 161.747 227.482 160.404 227.509 159.068C227.578 156.133 227.145 155.69 223.897 154.861ZM226.102 151.684C226.252 151.618 226.398 151.557 226.548 151.491C226.79 150.904 226.74 150.338 226.089 149.973C225.926 149.881 225.574 150.137 225.31 150.229C225.573 150.715 225.84 151.197 226.102 151.684Z" fill="white"/>
<path d="M35.3258 81.0576L56.0143 78.49L57.4497 89.8942L50.057 90.8113C50.9058 92.4676 51.6409 94.5056 51.9563 96.9761C53.4828 109.05 44.1587 116.987 31.4757 118.563C29.3318 118.836 27.5152 118.847 25.9578 118.655C25.2935 119.753 25.0032 120.742 25.1345 121.803C25.2998 123.059 26.5726 123.975 28.0483 123.791L41.8315 122.085C53.0388 120.691 61.9959 123.735 63.4296 135.084C64.9215 146.948 53.7202 153.413 38.1554 155.354C23.6488 157.166 11.7882 154.684 10.5392 144.759C9.96342 140.237 12.3574 136.37 16.3646 133.577C14.6432 132.618 12.9787 130.804 12.5115 127.063C12.0101 123.127 14.0988 119.773 17.0098 116.788C11.5368 114.314 7.16678 109.581 6.29178 102.657C4.76491 90.5693 14.0894 82.6465 26.7725 81.07C29.6956 80.6902 32.5613 80.7043 35.3258 81.0576ZM20.8398 100.83C21.4156 105.352 24.9937 107.573 30.0196 106.95C35.0456 106.326 37.9691 103.298 37.3934 98.7758C36.8177 94.2534 33.2396 92.0326 28.2136 92.6562C23.1877 93.2798 20.2781 96.3072 20.8398 100.83ZM25.6345 136.345C25.0068 137.274 24.607 138.337 24.7724 139.593C25.1618 142.635 28.6129 143.487 36.4232 142.516C45.6394 141.363 48.6206 139.72 48.2846 137.04C48.0073 134.891 45.9608 133.816 42.9255 134.185L25.6345 136.345Z" fill="white"/>
<path d="M224.172 108.655L223.157 104.832C220.554 108.257 215.24 110.836 209.003 111.607C194.802 113.369 184.131 103.398 182.232 88.3646C180.33 73.2335 188.186 60.8426 202.372 59.0819C209.974 58.1447 215.015 60.2246 218.418 63.5433L214.767 34.6074L230.792 32.6108L240.127 106.661L224.172 108.655ZM198.838 86.1969C199.693 92.9247 205.106 97.0531 211.385 96.2667C217.566 95.4972 221.522 90.1975 220.682 83.4833C219.826 76.7135 214.678 72.6053 208.497 73.3748C202.148 74.1493 197.947 79.2039 198.838 86.1969Z" fill="white"/>
<path d="M94.0445 53.3636C91.9721 55.9151 90.076 58.7641 87.6699 61.0533C84.5837 63.9923 80.7609 66.357 76.3274 65.2326C70.6008 63.7901 65.1816 61.4509 63.2938 54.8949C63.2279 54.6717 63.0966 54.4652 62.9755 54.2049C62.822 54.3065 62.6654 54.3548 62.6309 54.45C61.3482 58.04 58.7685 60.7787 56.0632 63.1772C53.2315 65.6892 49.7933 67.5798 45.6463 67.0537C45.1246 66.9881 44.6014 66.8959 44.1258 66.7078C42.2928 66.0051 40.4606 65.3157 38.6745 64.5037C34.8035 62.7623 32.9762 59.3647 31.817 55.5712C29.6582 48.4561 31.6961 42.0379 35.5688 36.1222C37.0341 33.8698 39.0642 31.9742 40.9036 29.9953C41.2289 29.6444 41.9114 29.5014 42.441 29.4732C46.6383 29.2496 50.3073 30.7082 53.5985 33.2275C54.987 34.2874 55.4324 35.8111 54.8406 37.31C53.0306 41.9019 50.173 45.5891 45.7233 47.9072C45.0912 48.2343 44.445 48.5489 43.7672 48.7717C42.2672 49.2518 41.7703 50.3188 41.6963 51.8168C41.545 54.5194 42.2731 57.0419 43.1579 59.5159C43.9651 61.794 45.4562 62.555 47.7834 61.9108C48.8944 61.5982 50.0308 61.0307 50.8902 60.2646C55.238 56.3913 58.1022 51.4231 60.6771 46.2702C62.4887 42.6387 64.0529 38.8602 66.1679 35.426C67.7724 32.8193 70.0514 30.6303 72.0837 28.3076C72.3584 27.9995 72.9061 27.8236 73.3431 27.8003C77.6969 27.5284 81.5116 28.9793 84.9038 31.6399C86.2386 32.6894 86.6281 34.1627 86.0472 35.6209C84.2372 40.2128 81.3663 43.9008 76.9298 46.2181C76.2977 46.5452 75.6376 46.8472 74.9737 47.0827C73.5665 47.5578 72.984 48.5226 72.8953 49.9947C72.733 52.738 73.4385 55.3283 74.352 57.8409C75.3269 60.4969 77.708 61.2638 80.4479 59.7039C81.9009 58.8661 83.2127 57.649 84.3221 56.376C87.9733 52.1662 90.7415 47.3766 92.9324 42.2442C93.2021 41.6162 93.2118 40.8553 93.2246 40.1476C93.3187 33.6462 93.2921 27.1245 94.6937 20.7268C95.3259 17.8384 95.8888 14.9004 97.9211 12.5778C98.2824 12.1583 98.7015 11.5891 99.1743 11.4972C103.282 10.638 107.34 10.5286 111.065 12.9714C113.051 14.2663 113.852 15.9578 113.582 18.4533C113.091 22.8816 111.579 26.884 109.42 30.7074C107.586 33.94 105.738 37.1732 103.945 40.4303C103.632 40.9939 103.393 41.7002 103.429 42.3253C103.756 48.2974 104.15 54.2659 104.529 60.2219C104.546 60.5145 104.562 60.7938 104.618 61.0842C105.009 63.2911 106.556 64.0892 108.13 62.578C110.484 60.3182 112.762 57.8757 114.547 55.1661C118.08 49.8287 120.915 44.1018 122.834 37.93C123.194 36.7903 124.025 35.7589 124.78 34.7982C125.399 34.0049 126.061 34.2097 126.251 35.2001C126.384 35.9 126.506 36.6538 126.386 37.3406C125.866 40.1029 125.633 42.9967 124.583 45.5472C121.671 52.7056 118.378 59.6976 113.618 65.9007C111.603 68.5292 109.105 69.2092 106.1 68.9157C105.019 68.8132 103.953 68.5232 102.867 68.3409C99.6896 67.8165 97.2879 66.2236 96.3496 63.0454C95.5106 60.2087 94.9598 57.3034 94.2773 54.4183C94.1316 53.9592 94.0801 53.5217 94.0445 53.3636ZM101.783 31.6212C101.904 31.6548 102.039 31.6876 102.159 31.7078C104.164 28.4395 106.018 25.0726 107 21.3385C107.23 20.4725 106.914 19.3688 106.585 18.4793C106.397 17.9824 105.655 17.5417 105.104 17.4243C104.848 17.3712 104.213 18.112 104.093 18.572C103.222 21.9266 102.365 25.2939 101.655 28.6799C101.456 29.6243 101.727 30.6504 101.783 31.6212ZM41.472 45.7858C43.6002 44.9121 45.1397 43.4961 46.38 41.7226C48.0745 39.2979 47.836 37.9099 45.3654 36.0406C42.2783 38.4995 40.9316 41.666 41.472 45.7858ZM76.5307 34.327C73.4982 36.8097 72.0705 39.9539 72.6297 43.9393C74.3188 43.5158 76.1216 42.0592 77.5593 40.0216C79.2288 37.6249 78.9748 36.1978 76.5307 34.327Z" fill="white"/>
<path d="M8.04307 54.9555C7.35036 55.1122 6.76172 55.2367 6.17535 55.4011C5.10594 55.6844 4.04483 56.1136 3.26973 54.824C2.39165 53.3536 2.35711 51.5853 3.42455 50.5701C4.24088 49.7946 5.22465 49.1699 6.21371 48.638C6.9969 48.2103 7.23365 47.7185 7.21016 46.8414C7.08758 40.739 6.87186 34.6283 6.98761 28.5266C7.06028 24.6897 8.01387 20.9788 10.0196 17.6112C13.6085 11.5904 21.6986 10.4537 26.7131 15.2837C29.5432 18.0209 30.1293 24.1252 27.8853 27.958C27.4509 28.6999 27.0204 29.5081 26.3598 29.9958C25.7636 30.4535 24.8285 30.7695 24.1082 30.6749C23.0953 30.5558 22.9719 29.5509 22.9725 28.6326C22.97 26.7295 23.021 24.8369 22.8865 22.9408C22.8212 22.026 22.5262 21.0302 22.0445 20.2441C20.7157 18.0657 18.5557 17.7949 17.2342 19.9282C15.8513 22.1448 14.6309 24.6587 14.1799 27.1982C13.6983 29.899 14.1146 32.7915 14.3269 35.5884C14.5267 38.3993 14.9898 41.1828 15.2688 43.9894C15.3874 45.141 15.9628 45.483 16.9855 45.3087C19.7911 44.8264 22.5834 44.3448 25.3882 43.8492C25.7159 43.7918 26.0274 43.682 26.3551 43.6246C27.3235 43.4266 28.2956 43.2949 28.8358 44.4107C29.3457 45.4615 29.2772 46.5831 28.3648 47.2972C27.2626 48.1679 26.0209 48.9128 24.7422 49.4734C22.5197 50.4304 20.2199 51.1919 17.9642 52.0308C16.862 52.4356 16.6792 53.1774 16.9422 54.308C18.3503 60.4349 19.2312 66.6033 18.1735 72.9017C17.7677 75.3056 16.4149 77.1213 14.6038 78.5621C12.8814 79.9316 10.0195 78.7266 9.84194 76.5401C9.56285 73.2676 9.59976 69.965 9.33387 66.6918C9.00983 62.8628 8.50026 59.0303 8.04307 54.9555Z" fill="white"/>
<path d="M116.972 96.44C118.856 111.445 108.77 124.112 93.179 126.07C77.5881 128.027 64.6918 118.228 62.8221 103.223C60.9383 88.2174 71.0244 75.5504 86.6152 73.5929C102.206 71.6493 115.102 81.4344 116.972 96.44ZM79.194 101.171C80.0451 107.991 85.059 112.22 91.3483 111.427C97.6515 110.633 101.451 105.311 100.6 98.4912C99.7491 91.6718 94.7351 87.4426 88.4459 88.2356C82.1567 89.0286 78.3428 94.3519 79.194 101.171Z" fill="url(#paint0_linear)"/>
<path d="M176.589 88.9734C178.473 103.979 168.387 116.646 152.796 118.603C137.205 120.561 124.309 110.762 122.439 95.756C120.555 80.7508 130.641 68.0838 146.232 66.1263C161.823 64.1827 174.719 73.9678 176.589 88.9734ZM138.811 93.7047C139.662 100.524 144.676 104.753 150.965 103.96C157.268 103.167 161.068 97.844 160.217 91.0246C159.366 84.2052 154.352 79.976 148.063 80.769C141.774 81.5621 137.96 86.8854 138.811 93.7047Z" fill="url(#paint1_linear)"/>
<path d="M137.251 125.885C135.134 126.148 133.429 127.754 133.042 129.851C132.818 130.788 131.071 136.686 122.231 137.791C113.391 138.897 110.241 133.599 109.791 132.763C108.794 130.562 106.328 129.414 103.997 130.07C101.666 130.738 100.168 133.002 100.493 135.397C100.562 135.926 100.71 136.426 100.951 136.91C101.192 137.434 107.034 149.571 123.43 147.518C139.839 145.466 142.519 132.26 142.595 131.7C142.699 131.179 142.723 130.647 142.654 130.117C142.348 127.483 139.925 125.578 137.251 125.885Z" fill="url(#paint2_linear)"/>
<path fill-rule="evenodd" clip-rule="evenodd" d="M167.792 43.987L167.924 35.7217C167.952 33.9478 166.567 32.4898 164.826 32.462C163.085 32.4342 161.653 33.8473 161.625 35.6212L161.493 43.8865C161.465 45.6573 162.851 47.1185 164.592 47.1462C166.332 47.174 167.764 45.7578 167.792 43.987ZM189.473 37.5105C188.707 37.1503 187.83 37.1175 187.041 37.4216C186.252 37.7256 185.617 38.3426 185.276 39.1272L181.678 47.3371C180.956 48.9653 181.667 50.8827 183.265 51.6167C184.862 52.3507 186.741 51.6251 187.465 49.997L191.06 41.787C191.414 41.0058 191.444 40.1127 191.146 39.3086C190.848 38.5044 190.246 37.8583 189.473 37.5106L189.473 37.5105ZM145.743 51.0589C144.123 51.7197 142.287 50.916 141.637 49.266L138.227 40.8663C137.579 39.2163 138.369 37.3417 139.988 36.6809C141.608 36.0201 143.447 36.8207 144.095 38.4707L147.505 46.8735C148.152 48.5234 147.366 50.3951 145.743 51.0589Z" fill="white"/>
<path d="M141.434 162.612C116.147 162.834 55.7444 164.841 16.4339 171.094" stroke="white" stroke-width="7.02519" stroke-linecap="round" stroke-dasharray="1.28 9.58"/>
<defs>
<linearGradient id="paint0_linear" x1="66.1646" y1="165.167" x2="184.528" y2="136.376" gradientUnits="userSpaceOnUse">
<stop stop-color="#E0004D"/>
<stop offset="0.0001" stop-color="#E0004D"/>
<stop offset="1" stop-color="#E07E3C"/>
</linearGradient>
<linearGradient id="paint1_linear" x1="66.1646" y1="165.167" x2="184.528" y2="136.376" gradientUnits="userSpaceOnUse">
<stop stop-color="#E0004D"/>
<stop offset="0.0001" stop-color="#E0004D"/>
<stop offset="1" stop-color="#E07E3C"/>
</linearGradient>
<linearGradient id="paint2_linear" x1="66.1646" y1="165.167" x2="184.528" y2="136.376" gradientUnits="userSpaceOnUse">
<stop stop-color="#E0004D"/>
<stop offset="0.0001" stop-color="#E0004D"/>
<stop offset="1" stop-color="#E07E3C"/>
</linearGradient>
</defs>
</svg>
