<svg width="113" height="79" viewBox="0 0 113 79" fill="none" xmlns="http://www.w3.org/2000/svg">
<path d="M53.7914 29.5719C55.6641 43.9692 45.8345 56.0997 30.6025 57.9461C15.3705 59.7926 2.74674 50.3671 0.887681 35.9694C-0.985046 21.5722 8.84462 9.44171 24.0766 7.59526C39.309 5.76223 51.9323 15.1743 53.7914 29.5719ZM16.8828 34.0347C17.729 40.5778 22.6379 44.6446 28.7823 43.8966C34.9404 43.1481 38.6426 38.0498 37.7963 31.5067C36.9501 24.9636 32.0412 20.8967 25.8968 21.6448C19.7523 22.3929 16.0365 27.4915 16.8828 34.0347Z" fill="url(#paint0_linear)"/>
<path d="M112.036 22.5293C113.909 36.9265 104.079 49.057 88.8474 50.9034C73.6154 52.7499 60.9916 43.3244 59.1326 28.9268C57.2598 14.5295 67.0895 2.39904 82.3215 0.552598C97.5539 -1.28043 110.177 8.13165 112.036 22.5293ZM75.1277 26.992C75.9739 33.5351 80.8827 37.602 87.0272 36.8539C93.1853 36.1054 96.8874 31.0072 96.0412 24.464C95.195 17.9209 90.2861 13.8541 84.1416 14.6021C77.9972 15.3502 74.2814 20.4489 75.1277 26.992Z" fill="url(#paint1_linear)"/>
<path d="M73.672 57.8569C71.6033 58.1055 69.9409 59.6426 69.5663 61.6536C69.3494 62.5517 67.6547 68.2055 59.0184 69.2482C50.382 70.2908 47.2927 65.203 46.8507 64.3998C45.872 62.2862 43.4599 61.1808 41.1831 61.8047C38.9066 62.4414 37.4469 64.6099 37.7697 66.9074C37.8384 67.4152 37.9842 67.8954 38.2203 68.3603C38.4576 68.8635 44.192 80.5168 60.2106 78.581C76.2421 76.6449 78.8336 63.9831 78.9067 63.4458C79.0069 62.9461 79.029 62.4358 78.9602 61.928C78.6557 59.4006 76.2844 57.5678 73.672 57.8569Z" fill="url(#paint2_linear)"/>
<defs>
<linearGradient id="paint0_linear" x1="4.28571" y1="95.3953" x2="119.54" y2="66.5938" gradientUnits="userSpaceOnUse">
<stop stop-color="#E0004D"/>
<stop offset="0.0001" stop-color="#E0004D"/>
<stop offset="1" stop-color="#E07E3C"/>
</linearGradient>
<linearGradient id="paint1_linear" x1="4.28571" y1="95.3953" x2="119.54" y2="66.5938" gradientUnits="userSpaceOnUse">
<stop stop-color="#E0004D"/>
<stop offset="0.0001" stop-color="#E0004D"/>
<stop offset="1" stop-color="#E07E3C"/>
</linearGradient>
<linearGradient id="paint2_linear" x1="4.28571" y1="95.3953" x2="119.54" y2="66.5938" gradientUnits="userSpaceOnUse">
<stop stop-color="#E0004D"/>
<stop offset="0.0001" stop-color="#E0004D"/>
<stop offset="1" stop-color="#E07E3C"/>
</linearGradient>
</defs>
</svg>
